<svg xmlns="http://www.w3.org/2000/svg" viewBox="0 0 123.66 182.81"><defs><style>.cls-1,.cls-3{fill:none;stroke:#231f20;}.cls-1{stroke-width:0.5px;}.cls-2{fill:#231f20;fill-rule:evenodd;}.cls-3{stroke-width:0.57px;}</style></defs><g id="Capa_2" data-name="Capa 2"><g id="Capa_1-2" data-name="Capa 1"><path class="cls-1" d="M73.21,4.13s1.48,5.17,7.89.49S88.48-.3,95.87,2.9s1.48,14.78,3.45,19.7c0,0,2,13.79,4.67,22.9S107.44,63.73,98.08,60s-19.2-11.32-19.2-11.32-9.11-3-6.65,6.15c0,0,16.25,12.56,24.62,17.48s16.5,6.9,20.2,11.09,12.55,10.59-.74,19.2c0,0-12.32,1-17.73-2.46S77.16,91.8,77.16,91.8,64.6,86.87,69.52,97l4.92,10.1S90.21,137.6,100.3,150.9s18.47,19.2,12.56,27.33-15,2.22-15,2.22S82.33,170.6,74.2,158s-17-28.81-20.69-51.47-1.23-11.08-1.23-11.08,1.48-9.11-9.6-7.39l-19,.25s-7.88.49-9.11,5.17c0,0-5.67,3.45-10.1.74,0,0-6.4.25-3.45-6.89,0,0,5.17-5.91,12.31-6.9S20,76,48.59,79.24l2.22-12.56S54,54.86,47.6,54.86,30.12,48,29.14,45.75s-8.38-4.19-2.71-15c0,0,5.17-6.9,12.56-1.73,0,0,5.42,9.61,11.82,5.42S54,18.66,54,18.66s1.72-16.5,4.68-16.5C58.69,2.16,63.12-3,73.21,4.13Z"/><path class="cls-1" d="M73.46,16.94s2-9.36,5.66.49,6.65,19.21,6.65,19.21S90,50.18,81.59,44c0,0-3.2-6.41-7.64-3.7s-8.12,8.38-7.14,1S73.46,16.94,73.46,16.94Z"/><path class="cls-1" d="M74.2,64.71s-9.36-8.37-9.6,1.72,2.7,13.3,2.7,13.3S66.07,86.87,70,85.4a231.59,231.59,0,0,0,27.58,4.92c16.26,2,13.55-2.46,8.38-7.39S74.2,64.71,74.2,64.71Z"/><path class="cls-2" d="M81.1,4.62c-6.41,4.68-7.89-.49-7.89-.49S63.12-3,58.69,2.16c-3,0-4.68,16.5-4.68,16.5s3.2,11.58-3.2,15.76S39,29,39,29c-7.39-5.17-12.56,1.73-12.56,1.73-5.67,10.83,1.72,12.8,2.71,15S41.2,54.86,47.6,54.86s3.21,11.82,3.21,11.82L48.59,79.24C20,76,20.52,79.48,13.37,80.47s-12.31,6.9-12.31,6.9c-2.95,7.14,3.45,6.89,3.45,6.89,4.43,2.71,10.1-.74,10.1-.74,1.23-4.68,9.11-5.17,9.11-5.17l19-.25c11.08-1.72,9.6,7.39,9.6,7.39s-2.46-11.57,1.23,11.08S66.07,145.48,74.2,158s23.64,22.41,23.64,22.41,9.11,5.91,15-2.22-2.46-14-12.56-27.33-25.86-43.83-25.86-43.83L69.52,97c-4.92-10.1,7.64-5.17,7.64-5.17s16,4.92,21.42,8.37,17.73,2.46,17.73,2.46c13.29-8.61,4.43-15,.74-19.2s-11.82-6.16-20.2-11.09S72.23,54.86,72.23,54.86c-2.46-9.11,6.65-6.15,6.65-6.15S88.73,56.34,98.08,60s8.63-5.42,5.91-14.53-4.67-22.9-4.67-22.9c-2-4.92,3.94-16.5-3.45-19.7S87.5,0,81.1,4.62ZM64.6,66.43c.24-10.09,9.6-1.72,9.6-1.72S100.8,78,106,82.93s7.88,9.36-8.38,7.39A231.59,231.59,0,0,1,70,85.4c-3.94,1.47-2.71-5.67-2.71-5.67S64.35,76.53,64.6,66.43Zm2.21-25.11c1-7.39,6.65-24.38,6.65-24.38s2-9.36,5.66.49,6.65,19.21,6.65,19.21S90,50.18,81.59,44c0,0-3.2-6.41-7.64-3.7S65.83,48.71,66.81,41.32Z"/><path class="cls-3" d="M81.1,4.62c-6.41,4.68-7.89-.49-7.89-.49S63.12-3,58.69,2.16c-3,0-4.68,16.5-4.68,16.5s3.2,11.58-3.2,15.76S39,29,39,29c-7.39-5.17-12.56,1.73-12.56,1.73-5.67,10.83,1.72,12.8,2.71,15S41.2,54.86,47.6,54.86s3.21,11.82,3.21,11.82L48.59,79.24C20,76,20.52,79.48,13.37,80.47s-12.31,6.9-12.31,6.9c-2.95,7.14,3.45,6.89,3.45,6.89,4.43,2.71,10.1-.74,10.1-.74,1.23-4.68,9.11-5.17,9.11-5.17l19-.25c11.08-1.72,9.6,7.39,9.6,7.39s-2.46-11.57,1.23,11.08S66.07,145.48,74.2,158s23.64,22.41,23.64,22.41,9.11,5.91,15-2.22-2.46-14-12.56-27.33-25.86-43.83-25.86-43.83L69.52,97c-4.92-10.1,7.64-5.17,7.64-5.17s16,4.92,21.42,8.37,17.73,2.46,17.73,2.46c13.29-8.61,4.43-15,.74-19.2s-11.82-6.16-20.2-11.09S72.23,54.86,72.23,54.86c-2.46-9.11,6.65-6.15,6.65-6.15S88.73,56.34,98.08,60s8.63-5.42,5.91-14.53-4.67-22.9-4.67-22.9c-2-4.92,3.94-16.5-3.45-19.7S87.5,0,81.1,4.62ZM64.6,66.43c.24-10.09,9.6-1.72,9.6-1.72S100.8,78,106,82.93s7.88,9.36-8.38,7.39A231.59,231.59,0,0,1,70,85.4c-3.94,1.47-2.71-5.67-2.71-5.67S64.35,76.53,64.6,66.43Zm2.21-25.11c1-7.39,6.65-24.38,6.65-24.38s2-9.36,5.66.49,6.65,19.21,6.65,19.21S90,50.18,81.59,44c0,0-3.2-6.41-7.64-3.7S65.83,48.71,66.81,41.32Z"/></g></g></svg>